<mxfile host="app.diagrams.net" modified="2022-01-10T09:36:27.881Z" agent="5.0 (Windows NT 10.0; Win64; x64) AppleWebKit/537.36 (KHTML, like Gecko) Chrome/96.0.4664.110 Safari/537.36" etag="xIytqD4plfn4-HfWRP5Y" version="16.0.0" type="github">
  <diagram name="Driver / Rider add a reservation" id="13e1069c-82ec-6db2-03f1-153e76fe0fe0">
    <mxGraphModel dx="1697" dy="949" grid="1" gridSize="10" guides="1" tooltips="1" connect="1" arrows="1" fold="1" page="1" pageScale="1" pageWidth="1100" pageHeight="850" background="none" math="0" shadow="0">
      <root>
        <mxCell id="0" />
        <mxCell id="1" parent="0" />
        <mxCell id="7baba1c4bc27f4b0-2" value="App" style="shape=umlLifeline;perimeter=lifelinePerimeter;whiteSpace=wrap;html=1;container=1;collapsible=0;recursiveResize=0;outlineConnect=0;rounded=1;shadow=0;comic=0;labelBackgroundColor=none;strokeWidth=1;fontFamily=Verdana;fontSize=12;align=center;" parent="1" vertex="1">
          <mxGeometry x="269" y="215" width="100" height="580" as="geometry" />
        </mxCell>
        <mxCell id="ioOuB3QETvJVTPiwHxYU-3" value="Input origin, destination and departure time" style="html=1;points=[];perimeter=orthogonalPerimeter;" vertex="1" parent="7baba1c4bc27f4b0-2">
          <mxGeometry x="45" y="80" width="10" height="80" as="geometry" />
        </mxCell>
        <mxCell id="ioOuB3QETvJVTPiwHxYU-20" value="Display the matched reservation" style="html=1;points=[];perimeter=orthogonalPerimeter;" vertex="1" parent="7baba1c4bc27f4b0-2">
          <mxGeometry x="45" y="360" width="10" height="80" as="geometry" />
        </mxCell>
        <mxCell id="7baba1c4bc27f4b0-3" value="Backend" style="shape=umlLifeline;perimeter=lifelinePerimeter;whiteSpace=wrap;html=1;container=1;collapsible=0;recursiveResize=0;outlineConnect=0;rounded=1;shadow=0;comic=0;labelBackgroundColor=none;strokeWidth=1;fontFamily=Verdana;fontSize=12;align=center;strokeColor=#FF3333;" parent="1" vertex="1">
          <mxGeometry x="505" y="215" width="100" height="580" as="geometry" />
        </mxCell>
        <mxCell id="ioOuB3QETvJVTPiwHxYU-7" value="" style="html=1;points=[];perimeter=orthogonalPerimeter;strokeColor=#FF3333;" vertex="1" parent="7baba1c4bc27f4b0-3">
          <mxGeometry x="45" y="80" width="10" height="360" as="geometry" />
        </mxCell>
        <mxCell id="ioOuB3QETvJVTPiwHxYU-9" value="Storing the reservation data" style="html=1;points=[];perimeter=orthogonalPerimeter;strokeColor=#FF3333;" vertex="1" parent="7baba1c4bc27f4b0-3">
          <mxGeometry x="35" y="130" width="30" height="80" as="geometry" />
        </mxCell>
        <mxCell id="ioOuB3QETvJVTPiwHxYU-11" value="dispatch" style="html=1;verticalAlign=bottom;endArrow=block;rounded=0;" edge="1" parent="7baba1c4bc27f4b0-3" source="7baba1c4bc27f4b0-2">
          <mxGeometry width="80" relative="1" as="geometry">
            <mxPoint x="-189" y="150" as="sourcePoint" />
            <mxPoint x="35" y="150" as="targetPoint" />
          </mxGeometry>
        </mxCell>
        <mxCell id="ioOuB3QETvJVTPiwHxYU-12" value="Matching reservations according to their&lt;br&gt;carpool group, role (driver/rider), &lt;br&gt;origin / destination, departure time" style="html=1;points=[];perimeter=orthogonalPerimeter;strokeColor=#FF3333;" vertex="1" parent="7baba1c4bc27f4b0-3">
          <mxGeometry x="35" y="222" width="30" height="78" as="geometry" />
        </mxCell>
        <mxCell id="ioOuB3QETvJVTPiwHxYU-18" value="" style="edgeStyle=elbowEdgeStyle;elbow=vertical;endArrow=classic;html=1;rounded=0;curved=1;entryX=1.033;entryY=0.099;entryDx=0;entryDy=0;entryPerimeter=0;exitX=1.052;exitY=0.877;exitDx=0;exitDy=0;exitPerimeter=0;strokeColor=#FF3333;" edge="1" parent="7baba1c4bc27f4b0-3" source="ioOuB3QETvJVTPiwHxYU-9" target="ioOuB3QETvJVTPiwHxYU-12">
          <mxGeometry width="50" height="50" relative="1" as="geometry">
            <mxPoint x="75" y="190" as="sourcePoint" />
            <mxPoint x="205" y="210" as="targetPoint" />
            <Array as="points">
              <mxPoint x="105" y="215" />
            </Array>
          </mxGeometry>
        </mxCell>
        <mxCell id="ioOuB3QETvJVTPiwHxYU-25" value="Storing the matched reservations" style="html=1;points=[];perimeter=orthogonalPerimeter;strokeColor=#FF3333;" vertex="1" parent="7baba1c4bc27f4b0-3">
          <mxGeometry x="35" y="314" width="30" height="78" as="geometry" />
        </mxCell>
        <mxCell id="ioOuB3QETvJVTPiwHxYU-26" value="" style="edgeStyle=elbowEdgeStyle;elbow=vertical;endArrow=classic;html=1;rounded=0;curved=1;exitX=1.09;exitY=0.901;exitDx=0;exitDy=0;exitPerimeter=0;entryX=1.033;entryY=0.139;entryDx=0;entryDy=0;entryPerimeter=0;strokeColor=#FF3333;" edge="1" parent="7baba1c4bc27f4b0-3" source="ioOuB3QETvJVTPiwHxYU-12" target="ioOuB3QETvJVTPiwHxYU-25">
          <mxGeometry width="50" height="50" relative="1" as="geometry">
            <mxPoint x="76.55999999999995" y="210.16000000000008" as="sourcePoint" />
            <mxPoint x="135" y="475" as="targetPoint" />
            <Array as="points">
              <mxPoint x="105" y="305" />
            </Array>
          </mxGeometry>
        </mxCell>
        <mxCell id="7baba1c4bc27f4b0-4" value="App" style="shape=umlLifeline;perimeter=lifelinePerimeter;whiteSpace=wrap;html=1;container=1;collapsible=0;recursiveResize=0;outlineConnect=0;rounded=1;shadow=0;comic=0;labelBackgroundColor=none;strokeWidth=1;fontFamily=Verdana;fontSize=12;align=center;" parent="1" vertex="1">
          <mxGeometry x="731" y="215" width="100" height="580" as="geometry" />
        </mxCell>
        <mxCell id="ioOuB3QETvJVTPiwHxYU-5" value="Input origin, destination and departure time" style="html=1;points=[];perimeter=orthogonalPerimeter;" vertex="1" parent="7baba1c4bc27f4b0-4">
          <mxGeometry x="45" y="80" width="10" height="80" as="geometry" />
        </mxCell>
        <mxCell id="ioOuB3QETvJVTPiwHxYU-19" value="Display the matched reservation" style="html=1;points=[];perimeter=orthogonalPerimeter;" vertex="1" parent="7baba1c4bc27f4b0-4">
          <mxGeometry x="45" y="361" width="10" height="80" as="geometry" />
        </mxCell>
        <mxCell id="7baba1c4bc27f4b0-5" value="Rider" style="shape=umlLifeline;perimeter=lifelinePerimeter;whiteSpace=wrap;html=1;container=1;collapsible=0;recursiveResize=0;outlineConnect=0;rounded=1;shadow=0;comic=0;labelBackgroundColor=none;strokeWidth=1;fontFamily=Verdana;fontSize=12;align=center;" parent="1" vertex="1">
          <mxGeometry x="946" y="215" width="100" height="580" as="geometry" />
        </mxCell>
        <mxCell id="ioOuB3QETvJVTPiwHxYU-4" value="Post a carpool reservation" style="html=1;points=[];perimeter=orthogonalPerimeter;" vertex="1" parent="7baba1c4bc27f4b0-5">
          <mxGeometry x="45" y="60" width="10" height="390" as="geometry" />
        </mxCell>
        <mxCell id="7baba1c4bc27f4b0-8" value="Driver" style="shape=umlLifeline;perimeter=lifelinePerimeter;whiteSpace=wrap;html=1;container=1;collapsible=0;recursiveResize=0;outlineConnect=0;rounded=1;shadow=0;comic=0;labelBackgroundColor=none;strokeWidth=1;fontFamily=Verdana;fontSize=12;align=center;" parent="1" vertex="1">
          <mxGeometry x="40" y="215" width="100" height="580" as="geometry" />
        </mxCell>
        <mxCell id="ioOuB3QETvJVTPiwHxYU-1" value="Post a carpool reservation" style="html=1;points=[];perimeter=orthogonalPerimeter;" vertex="1" parent="7baba1c4bc27f4b0-8">
          <mxGeometry x="45" y="60" width="10" height="390" as="geometry" />
        </mxCell>
        <mxCell id="ioOuB3QETvJVTPiwHxYU-2" value="dispatch" style="html=1;verticalAlign=bottom;endArrow=block;rounded=0;" edge="1" parent="7baba1c4bc27f4b0-8" target="ioOuB3QETvJVTPiwHxYU-3">
          <mxGeometry width="80" relative="1" as="geometry">
            <mxPoint x="50" y="90" as="sourcePoint" />
            <mxPoint x="130" y="90" as="targetPoint" />
          </mxGeometry>
        </mxCell>
        <mxCell id="7baba1c4bc27f4b0-40" value="Role: driver" style="shape=note;whiteSpace=wrap;html=1;size=14;verticalAlign=top;align=center;spacingTop=-6;rounded=0;shadow=0;comic=0;labelBackgroundColor=none;strokeWidth=1;fontFamily=Verdana;fontSize=12" parent="1" vertex="1">
          <mxGeometry x="40" y="165" width="100" height="35" as="geometry" />
        </mxCell>
        <mxCell id="7baba1c4bc27f4b0-41" value="Mobile device" style="shape=note;whiteSpace=wrap;html=1;size=14;verticalAlign=top;align=left;spacingTop=-6;rounded=0;shadow=0;comic=0;labelBackgroundColor=none;strokeWidth=1;fontFamily=Verdana;fontSize=12" parent="1" vertex="1">
          <mxGeometry x="269" y="165" width="100" height="35" as="geometry" />
        </mxCell>
        <mxCell id="7baba1c4bc27f4b0-42" value="Backend server API" style="shape=note;whiteSpace=wrap;html=1;size=14;verticalAlign=top;align=center;spacingTop=-6;rounded=0;shadow=0;comic=0;labelBackgroundColor=none;strokeWidth=1;fontFamily=Verdana;fontSize=12;strokeColor=#FF3333;" parent="1" vertex="1">
          <mxGeometry x="505" y="165" width="100" height="35" as="geometry" />
        </mxCell>
        <mxCell id="7baba1c4bc27f4b0-43" value="Mobile device" style="shape=note;whiteSpace=wrap;html=1;size=14;verticalAlign=top;align=left;spacingTop=-6;rounded=0;shadow=0;comic=0;labelBackgroundColor=none;strokeWidth=1;fontFamily=Verdana;fontSize=12" parent="1" vertex="1">
          <mxGeometry x="731" y="165" width="100" height="35" as="geometry" />
        </mxCell>
        <mxCell id="7baba1c4bc27f4b0-44" value="Role: rider" style="shape=note;whiteSpace=wrap;html=1;size=14;verticalAlign=top;align=center;spacingTop=-6;rounded=0;shadow=0;comic=0;labelBackgroundColor=none;strokeWidth=1;fontFamily=Verdana;fontSize=12" parent="1" vertex="1">
          <mxGeometry x="946" y="165" width="100" height="35" as="geometry" />
        </mxCell>
        <mxCell id="ioOuB3QETvJVTPiwHxYU-6" value="dispatch" style="html=1;verticalAlign=bottom;endArrow=block;rounded=0;" edge="1" parent="1">
          <mxGeometry width="80" relative="1" as="geometry">
            <mxPoint x="995.5" y="305" as="sourcePoint" />
            <mxPoint x="786" y="305" as="targetPoint" />
          </mxGeometry>
        </mxCell>
        <mxCell id="ioOuB3QETvJVTPiwHxYU-10" value="dispatch" style="html=1;verticalAlign=bottom;endArrow=block;rounded=0;" edge="1" parent="1">
          <mxGeometry width="80" relative="1" as="geometry">
            <mxPoint x="779.5" y="365" as="sourcePoint" />
            <mxPoint x="570" y="365" as="targetPoint" />
          </mxGeometry>
        </mxCell>
        <mxCell id="ioOuB3QETvJVTPiwHxYU-21" value="return" style="html=1;verticalAlign=bottom;endArrow=open;dashed=1;endSize=8;rounded=0;curved=1;" edge="1" parent="1">
          <mxGeometry relative="1" as="geometry">
            <mxPoint x="540" y="590" as="sourcePoint" />
            <mxPoint x="319" y="590" as="targetPoint" />
          </mxGeometry>
        </mxCell>
        <mxCell id="ioOuB3QETvJVTPiwHxYU-22" value="return" style="html=1;verticalAlign=bottom;endArrow=open;dashed=1;endSize=8;rounded=0;curved=1;exitX=1.033;exitY=0.785;exitDx=0;exitDy=0;exitPerimeter=0;" edge="1" parent="1">
          <mxGeometry relative="1" as="geometry">
            <mxPoint x="570.9899999999998" y="589.2" as="sourcePoint" />
            <mxPoint x="780.5" y="589.2" as="targetPoint" />
          </mxGeometry>
        </mxCell>
        <mxCell id="ioOuB3QETvJVTPiwHxYU-23" value="return" style="html=1;verticalAlign=bottom;endArrow=open;dashed=1;endSize=8;rounded=0;curved=1;exitX=1.033;exitY=0.785;exitDx=0;exitDy=0;exitPerimeter=0;" edge="1" parent="1">
          <mxGeometry relative="1" as="geometry">
            <mxPoint x="789.9999999999998" y="641.0000000000001" as="sourcePoint" />
            <mxPoint x="990" y="641" as="targetPoint" />
          </mxGeometry>
        </mxCell>
        <mxCell id="ioOuB3QETvJVTPiwHxYU-24" value="return" style="html=1;verticalAlign=bottom;endArrow=open;dashed=1;endSize=8;rounded=0;curved=1;" edge="1" parent="1">
          <mxGeometry relative="1" as="geometry">
            <mxPoint x="311" y="640" as="sourcePoint" />
            <mxPoint x="95" y="640" as="targetPoint" />
          </mxGeometry>
        </mxCell>
        <mxCell id="ioOuB3QETvJVTPiwHxYU-28" value="&lt;h1&gt;&lt;b&gt;Carpool driver or rider creates new reservations&lt;/b&gt;&lt;/h1&gt;" style="rounded=0;whiteSpace=wrap;html=1;" vertex="1" parent="1">
          <mxGeometry x="260" y="40" width="580" height="60" as="geometry" />
        </mxCell>
      </root>
    </mxGraphModel>
  </diagram>
</mxfile>
